<svg xmlns="http://www.w3.org/2000/svg" viewBox="0 0 64 64">
  <defs>
    <linearGradient id="cloudGradient" x1="0%" y1="0%" x2="100%" y2="100%">
      <stop offset="0%" style="stop-color:#f97316;stop-opacity:1" />
      <stop offset="100%" style="stop-color:#fb923c;stop-opacity:1" />
    </linearGradient>
  </defs>
  <path fill="url(#cloudGradient)" d="M52 32c0-2.5-1-4.8-2.6-6.5C48.8 21.8 45 19 40.5 19c-3.2 0-6 1.4-8 3.6C31.3 21 29.2 20 27 20c-5 0-9 4-9 9 0 0.3 0 0.5 0.1 0.8C15.2 31 13 33.8 13 37c0 4.4 3.6 8 8 8h28c4.4 0 8-3.6 8-8 0-3.2-1.9-5.9-4.6-7.2C52.8 29.2 52 27.6 52 26V32z"/>
  <circle fill="url(#cloudGradient)" cx="32" cy="28" r="2" opacity="0.3"/>
  <circle fill="url(#cloudGradient)" cx="38" cy="30" r="1.5" opacity="0.3"/>
  <circle fill="url(#cloudGradient)" cx="26" cy="30" r="1.5" opacity="0.3"/>
</svg>
